<svg width="65" height="57" viewBox="0 0 65 57" fill="none" xmlns="http://www.w3.org/2000/svg">
<path d="M65 38.5C65 48.4411 56.9411 56.5 47 56.5L20 56.5C17.2386 56.5 15 54.2614 15 51.5L15 17.5C15 11.9772 19.4772 7.5 25 7.5L60 7.5C62.7614 7.5 65 9.73858 65 12.5L65 38.5Z" fill="#E8F5E9"/>
<path d="M28.3117 24.1446C28.0709 24.1446 27.8473 24.0784 27.6487 23.9719V23.9748C27.6487 24.3536 27.5014 24.7094 27.2343 24.9758C26.9671 25.243 26.6116 25.3903 26.2332 25.3903C25.9889 25.3903 25.7625 25.3224 25.5617 25.2131C25.5415 25.5597 25.4029 25.8836 25.1558 26.131C24.8886 26.3982 24.5331 26.5454 24.1545 26.5454C23.4022 26.5454 22.7913 25.9541 22.7473 25.2129C22.5145 25.3387 22.2513 25.4046 21.9799 25.3872C21.2398 25.3387 20.6603 24.6993 20.6603 23.9312V17.5645L19.9353 18.8205C19.6592 19.3009 19.1423 19.5991 18.5858 19.5991C18.3147 19.5991 18.0468 19.528 17.8095 19.392C17.5141 19.2208 17.3028 18.9458 17.2149 18.6169C17.1265 18.2878 17.1722 17.9436 17.3431 17.6486C17.3433 17.6486 19.715 13.5414 19.8597 13.2891C19.8769 13.2512 19.9259 13.1411 19.9676 13.0474C20.0075 12.9578 20.0416 12.866 20.0744 12.7736C20.7896 10.7543 22.5607 9.49998 24.6966 9.49998C27.4703 9.49998 29.7268 11.9469 29.7268 14.9546L29.727 22.7289C29.727 23.1073 29.58 23.4628 29.3131 23.7302C29.0459 23.9974 28.6904 24.1447 28.3116 24.1447L28.3117 24.1446ZM24.6966 10.2521C22.8613 10.2521 21.3984 11.2888 20.7833 13.0251C20.744 13.1354 20.703 13.2457 20.6552 13.3531C20.5164 13.6643 20.5164 13.6643 20.4773 13.7091L20.4721 13.7046C20.2784 14.07 19.7031 15.0663 17.9943 18.025C17.9241 18.1463 17.9055 18.2872 17.9413 18.422C17.9776 18.5567 18.0645 18.6703 18.1849 18.7398C18.5586 18.9544 19.0703 18.8159 19.2833 18.4448L20.7108 15.9734C20.7961 15.8261 20.9685 15.7538 21.1339 15.7986C21.2983 15.8426 21.4126 15.9918 21.4126 16.1619V23.9314C21.4126 24.298 21.6892 24.6144 22.0292 24.6368C22.2252 24.6471 22.408 24.5814 22.5454 24.4443C22.6702 24.3194 22.739 24.1531 22.739 23.9752V18.8938C22.739 18.686 22.9075 18.5176 23.1153 18.5176C23.3231 18.5176 23.4915 18.6858 23.4915 18.8938L23.4913 25.1302C23.4913 25.4958 23.7889 25.7934 24.1545 25.7934C24.3321 25.7934 24.499 25.7246 24.6241 25.5997C24.7489 25.4746 24.8177 25.3078 24.8177 25.1302V18.8938C24.8177 18.686 24.9859 18.5176 25.194 18.5176C25.4018 18.5176 25.5702 18.6858 25.5702 18.8938L25.57 23.9168V23.9752C25.57 24.3406 25.8675 24.6381 26.2334 24.6381C26.4108 24.6381 26.5772 24.5691 26.703 24.4438C26.8278 24.3191 26.8966 24.1528 26.8966 23.9749V18.8936C26.8966 18.6858 27.0649 18.5173 27.2729 18.5173C27.4807 18.5173 27.6491 18.6855 27.6491 18.8936L27.6487 22.7291C27.6487 23.095 27.9462 23.3925 28.3116 23.3925C28.4895 23.3925 28.6558 23.3235 28.7807 23.1989C28.906 23.0736 28.9746 22.9067 28.9746 22.7291L28.9748 14.9548C28.9748 12.362 27.0557 10.2522 24.6966 10.2522L24.6966 10.2521Z" fill="#103E13"/>
<path d="M13.5291 29.548L18.9888 26.2727C19.6471 25.8774 20.4941 26.0454 20.9162 26.6553C21.0703 26.8775 21.149 27.1364 21.1613 27.4001C21.3648 27.2938 21.5863 27.2361 21.8117 27.2361C21.9272 27.2361 22.0431 27.2505 22.1576 27.279C22.5244 27.3706 22.8335 27.5999 23.0279 27.924C23.2225 28.2487 23.2793 28.6291 23.1877 28.9955C23.1031 29.3346 22.8969 29.6199 22.6102 29.8157C22.8107 29.9339 22.9836 30.0953 23.1066 30.3008C23.3012 30.6254 23.358 31.0057 23.2666 31.3725C23.1749 31.7389 22.9457 32.048 22.621 32.2429L22.6192 32.244C22.8161 32.3621 22.986 32.5218 23.1076 32.7242C23.3024 33.0488 23.3592 33.4293 23.2675 33.7961C23.1756 34.1627 22.9464 34.4718 22.6222 34.6664L15.9558 38.6657C14.7116 39.4119 13.2733 39.6694 11.9064 39.3902C10.5272 39.1084 9.38497 38.3157 8.69046 37.1579C7.59138 35.3261 7.75609 33.1619 9.11949 31.5101C9.18192 31.4347 9.24341 31.3579 9.29925 31.2783C9.35839 31.1942 9.42742 31.0952 9.45098 31.0613C9.5921 30.8092 11.8949 26.6603 11.8946 26.6608C12.1272 26.2412 12.563 26.0037 13.0125 26.0039C13.2222 26.0039 13.4349 26.0555 13.6312 26.1644C13.8682 26.2968 14.0673 26.4898 14.2065 26.7223C14.4928 27.1994 14.5029 27.7964 14.2334 28.2796L13.5291 29.548ZM13.5618 27.1091C13.4888 26.9873 13.3884 26.8902 13.2657 26.8214C13.012 26.681 12.6925 26.7724 12.5528 27.0252C10.905 29.9937 10.3434 31.0054 10.1266 31.3654L10.1315 31.3666C10.1134 31.4269 10.1134 31.4269 9.91502 31.7103C9.84764 31.8062 9.77437 31.8983 9.69969 31.989C8.52732 33.4094 8.39119 35.1969 9.33521 36.7709C9.91997 37.7458 10.8864 38.4142 12.0566 38.6531C13.2395 38.8937 14.4863 38.6699 15.5684 38.0206L22.2355 34.0211C22.3876 33.9299 22.4951 33.785 22.538 33.6133C22.5808 33.4417 22.5542 33.2634 22.4628 33.1112C22.2748 32.7979 21.8665 32.6949 21.5532 32.8836L18.2642 34.8568C18.0861 34.9637 17.8548 34.9062 17.748 34.7279C17.6411 34.5498 17.6988 34.3187 17.8769 34.2117L21.1661 32.2386L22.2343 31.5977C22.3865 31.5063 22.4941 31.3614 22.537 31.1901C22.5799 31.0184 22.5533 30.8398 22.4619 30.6878C22.2736 30.3743 21.8653 30.2723 21.5522 30.4603L17.1948 33.0742C17.0163 33.1814 16.7856 33.1235 16.6787 32.9454C16.5717 32.7673 16.6296 32.5361 16.8075 32.4292L22.1554 29.2211C22.3076 29.1296 22.415 28.985 22.4579 28.8132C22.5007 28.6417 22.4741 28.4634 22.3829 28.3112C22.2918 28.1592 22.1469 28.0518 21.9751 28.0089C21.8024 27.966 21.6248 27.9927 21.4731 28.0836L20.4831 28.6775C20.4829 28.6775 20.4829 28.6778 20.4826 28.6778H20.4824L16.1252 31.2917C15.9467 31.3992 15.7158 31.3412 15.6091 31.1629C15.5021 30.9848 15.5601 30.7536 15.7379 30.6467L20.0953 28.0327C20.2475 27.9413 20.3552 27.7964 20.398 27.6251C20.4452 27.4371 20.4094 27.2449 20.2977 27.0837C20.104 26.8036 19.6898 26.7291 19.3758 26.9179L12.7136 30.9146C12.5678 31.0017 12.3809 30.9805 12.2587 30.8625C12.1362 30.7442 12.1086 30.5583 12.1911 30.4097L13.5764 27.9137C13.7154 27.6642 13.71 27.3561 13.5618 27.1092L13.5618 27.1091Z" fill="#103E13"/>
<path d="M39.6181 37.1577C38.9238 38.3157 37.7819 39.1083 36.4025 39.3901C35.0353 39.6688 33.5974 39.4117 32.353 38.6656L25.686 34.6661C25.3616 34.4715 25.1321 34.1624 25.0402 33.7953C24.949 33.4289 25.006 33.0484 25.2004 32.7243C25.3217 32.5216 25.4918 32.3619 25.689 32.2439L25.6871 32.2427C25.3627 32.0481 25.1333 31.739 25.0419 31.3724C24.95 31.0058 25.007 30.625 25.2016 30.3004C25.3269 30.0919 25.4987 29.9289 25.6947 29.8132C25.4101 29.6174 25.2051 29.3331 25.1208 28.9957C25.0289 28.6288 25.0859 28.2483 25.2805 27.9242C25.4749 27.5997 25.7842 27.3705 26.1508 27.2789C26.2653 27.2501 26.3815 27.236 26.4965 27.236C26.7222 27.2362 26.9436 27.2935 27.1472 27.4C27.1597 27.1363 27.2381 26.8774 27.3922 26.6552C27.8146 26.0458 28.6609 25.8771 29.3201 26.2726L34.7796 29.5474L34.0759 28.2799C33.8059 27.796 33.8158 27.199 34.1021 26.7216C34.2415 26.4893 34.4408 26.2964 34.679 26.1628C34.8748 26.0544 35.0869 26.0031 35.296 26.0031C35.7453 26.0033 36.1817 26.2403 36.4139 26.6599C37.2235 28.1185 38.7511 30.8694 38.8585 31.0614C38.8813 31.0946 38.9504 31.1936 39.0095 31.2777C39.0658 31.3575 39.1266 31.4339 39.1895 31.5097C40.5527 33.1622 40.7171 35.3262 39.6181 37.1578L39.6181 37.1577ZM38.6091 31.9892C38.5341 31.8985 38.4606 31.8059 38.3937 31.7105C38.1902 31.4217 38.185 31.4141 38.1697 31.3385C37.9317 30.9448 37.3512 29.8997 35.7555 27.0249C35.6156 26.7726 35.2975 26.6805 35.0443 26.8204C34.9196 26.8901 34.8195 26.9874 34.7465 27.1093C34.5985 27.3559 34.5928 27.6641 34.7326 27.9143L36.1174 30.4095C36.2001 30.5584 36.1725 30.7441 36.0503 30.8623C35.9282 30.9808 35.7416 31.0016 35.5951 30.9144L28.9329 26.9177C28.6189 26.7295 28.2049 26.8032 28.0108 27.0836C27.8991 27.2447 27.8635 27.437 27.9102 27.6247C27.9531 27.7963 28.0607 27.9409 28.2132 28.0323C28.2136 28.0326 28.2139 28.033 28.2143 28.0333L32.5703 30.6465C32.7484 30.7535 32.8062 30.9844 32.6992 31.1627C32.5922 31.3406 32.3616 31.3988 32.183 31.2916L26.8352 28.0835C26.6834 27.9925 26.5048 27.9657 26.3333 28.0088C26.1613 28.0517 26.0167 28.1591 25.9255 28.3115C25.8341 28.4635 25.8077 28.6418 25.8501 28.8133C25.893 28.9849 26.0007 29.1297 26.1529 29.2212L27.1935 29.8453L31.5005 32.4293C31.6786 32.5363 31.7363 32.7672 31.6293 32.9455C31.5224 33.1234 31.2917 33.1814 31.1131 33.0744L26.7562 30.4604C26.4429 30.2719 26.0348 30.3742 25.8464 30.688C25.755 30.8402 25.7286 31.0186 25.771 31.1901C25.8139 31.3616 25.9215 31.5062 26.0739 31.5979L27.1422 32.2387L30.4308 34.2119C30.609 34.3188 30.6667 34.5497 30.5597 34.7281C30.4528 34.9059 30.2221 34.9644 30.0435 34.8569L26.7548 32.8838C26.6031 32.7928 26.4252 32.766 26.2528 32.8091C26.0813 32.852 25.9361 32.9594 25.845 33.1114C25.7538 33.2636 25.7272 33.4421 25.7696 33.6134C25.8124 33.7849 25.9201 33.9296 26.0725 34.0212L32.7395 38.0207C33.8214 38.6698 35.0691 38.8945 36.2514 38.6533C37.4213 38.4144 38.3878 37.746 38.9725 36.7711C39.9175 35.1968 39.7816 33.4091 38.6095 31.9892L38.6091 31.9892Z" fill="#103E13"/>
</svg>
