<svg width="84" height="40" viewBox="0 0 84 40" fill="none" xmlns="http://www.w3.org/2000/svg">
<g clip-path="url(#clip0_4172_6208)">
<path d="M73.9112 19.0816L73.8741 19.1188C74.1343 18.4126 74.6546 18.1524 75.1006 18.1524C75.7325 18.1524 76.29 18.6356 76.29 19.3418C76.29 19.4905 76.29 19.6763 76.2157 19.8993C74.9148 23.2445 72.1643 24.9542 69.4882 25.2144C68.2617 27.2958 66.2546 28.8197 63.3926 28.8197C59.3041 28.8197 57.4829 25.5861 57.4829 22.0551C57.4829 17.7064 60.2334 12.8745 64.8422 12.8745C65.8457 12.8745 66.7006 13.0976 67.4068 13.3949C69.4882 14.1754 70.8263 16.8887 70.8263 19.7878C70.8263 20.717 70.7519 21.6462 70.5289 22.5383C71.9042 22.0551 73.205 20.94 73.9112 19.0816ZM66.1431 15.9223V15.8852C65.3254 15.8852 64.8422 16.963 64.8422 18.2639C64.8422 20.1595 65.8829 21.9064 67.5183 22.5383C67.7785 21.7206 67.89 20.7914 67.89 19.7135C67.89 17.6321 67.2581 15.9223 66.1431 15.9223ZM63.4298 26.1064C64.4705 26.1064 65.5112 25.6604 66.3289 24.7312C63.913 23.6533 62.3891 21.1259 62.3891 18.7099C62.3891 17.8922 62.5378 17.0374 62.7608 16.294C61.2741 17.5206 60.4192 19.9365 60.4192 22.0551C60.4192 24.8055 61.7201 26.1064 63.4298 26.1064Z" fill="black"/>
<path d="M58.0568 19.0816L58.0196 19.1188C58.2798 18.4126 58.7258 18.1153 59.1718 18.1153C59.8037 18.1153 60.4355 18.6728 60.4355 19.379C60.4355 19.5648 60.3984 19.7135 60.324 19.8993C58.8745 23.4303 56.7187 27.556 53.2621 29.9719L53.1878 30.7153C52.7789 35.1755 50.5117 38.0002 47.6497 38.0002C45.4939 38.0002 44.2302 36.5135 44.2302 34.7666C44.2302 31.6073 47.4638 30.4551 50.4745 28.5224C50.5488 27.7418 50.586 26.8498 50.6231 25.8462C49.1364 27.4816 47.5382 28.1507 46.1258 28.1507C43.301 28.1507 40.9966 25.8462 40.9966 22.3153C40.9966 16.8887 44.5647 13.3206 48.5417 13.3206H48.5789C51.2922 13.3206 54.1913 14.7701 54.1913 17.3719C54.1913 18.2268 53.8196 22.8728 53.5223 26.4781C55.5293 24.5825 57.2019 21.4976 58.0568 19.0816ZM46.5346 25.4746C47.9099 25.4746 49.7683 24.6197 50.9205 20.4197C51.1063 19.4905 51.2178 18.6728 51.1807 17.7064C50.9577 16.7029 50.1028 16.1082 48.8762 16.1082C46.3488 16.1082 43.9329 18.5241 43.9329 22.2038C43.9329 24.4339 44.9736 25.4746 46.5346 25.4746ZM47.947 35.287H47.9842C48.7647 35.287 49.6196 34.7666 50.1771 31.4215C48.5417 32.3878 47.0178 33.3542 47.0178 34.5064C47.0178 34.9896 47.3895 35.287 47.947 35.287Z" fill="black"/>
<path d="M41.6485 19.0816L41.6114 19.1188C41.8715 18.4126 42.3919 18.1524 42.8379 18.1524C43.4698 18.1524 44.0273 18.6356 44.0273 19.3418C44.0273 19.4905 44.0273 19.6763 43.953 19.8993C42.6521 23.2445 39.9016 24.9542 37.2255 25.2144C35.999 27.2958 33.9919 28.8197 31.1299 28.8197C27.0414 28.8197 25.2202 25.5861 25.2202 22.0551C25.2202 17.7064 27.9706 12.8745 32.5795 12.8745C33.583 12.8745 34.4379 13.0976 35.1441 13.3949C37.2255 14.1754 38.5636 16.8887 38.5636 19.7878C38.5636 20.717 38.4892 21.6462 38.2662 22.5383C39.6415 22.0551 40.9423 20.94 41.6485 19.0816ZM33.8804 15.9223V15.8852C33.0627 15.8852 32.5795 16.963 32.5795 18.2639C32.5795 20.1595 33.6202 21.9064 35.2556 22.5383C35.5158 21.7206 35.6273 20.7914 35.6273 19.7135C35.6273 17.6321 34.9954 15.9223 33.8804 15.9223ZM31.1671 26.1064C32.2078 26.1064 33.2485 25.6604 34.0662 24.7312C31.6503 23.6533 30.1264 21.1259 30.1264 18.7099C30.1264 17.8922 30.2751 17.0374 30.4981 16.294C29.0114 17.5206 28.1565 19.9365 28.1565 22.0551C28.1565 24.8055 29.4574 26.1064 31.1671 26.1064Z" fill="black"/>
<path d="M27.1094 17.9083C26.589 17.9083 26.143 18.1685 25.8456 18.8747C24.8793 21.3278 22.8721 25.4907 20.8278 25.4907C19.5406 25.4907 18.5445 25.1996 17.5379 24.9054C16.51 24.605 15.4712 24.3013 14.1003 24.3013C13.6171 24.3013 12.948 24.3757 12.3162 24.4872C14.2198 21.8914 14.9309 18.7477 15.62 12.8054C14.3225 12.7228 13.2671 12.4831 12.4978 12.241C11.6762 19.7775 10.7431 22.6511 7.33554 25.4907C6.88951 25.8624 6.6665 26.3828 6.6665 26.9032C6.6665 27.7209 7.37272 28.4271 8.26477 28.4271C8.56212 28.4271 8.89663 28.3156 9.23115 28.1669C11.1268 27.312 12.279 27.089 13.6914 27.089C14.5896 27.089 15.6643 27.3459 16.815 27.6208C18.1404 27.9376 19.5665 28.2784 20.9394 28.2784C23.95 28.2784 25.92 25.3421 28.1129 19.6552C28.2245 19.4694 28.2616 19.2464 28.2616 19.0605C28.2616 18.3543 27.7041 17.9083 27.1094 17.9083Z" fill="black"/>
<path fill-rule="evenodd" clip-rule="evenodd" d="M12.6862 10.7029C13.3593 10.9378 14.4101 11.2114 15.7725 11.2923L15.9955 11.2922C20.1956 11.2922 22.9461 8.6904 22.9461 5.56821C22.9461 3.56109 21.385 2 19.192 2C16.2557 2 14.2114 4.00712 13.1707 7.98419C11.8698 7.27798 10.9777 6.01424 10.5317 4.41598C10.3087 3.63543 9.82549 3.15223 9.15644 3.15223C8.33873 3.15223 7.81836 3.78411 7.81836 4.63899C7.81836 7.16648 9.78832 9.58245 12.6875 10.6975L12.6862 10.7029ZM16.2185 8.57889C16.776 6.01424 17.6681 4.78767 18.8575 4.78767C19.4894 4.78767 19.8982 5.15936 19.8982 5.8284C19.8982 7.05497 18.5973 8.50455 16.2185 8.57889Z" fill="black"/>
</g>
<defs>
<clipPath id="clip0_4172_6208">
<rect width="70" height="36" fill="white" transform="translate(6.6665 2)"/>
</clipPath>
</defs>
</svg>
