<svg width="108" height="32" viewBox="0 0 108 32" fill="none" xmlns="http://www.w3.org/2000/svg">
<path fill-rule="evenodd" clip-rule="evenodd" d="M16.5 32C25.3366 32 32.5 24.8365 32.5 16C32.5 7.16345 25.3366 0 16.5 0C7.66343 0 0.5 7.16345 0.5 16C0.5 24.8365 7.66343 32 16.5 32ZM21.4915 7.45347C21.7344 6.59044 20.8969 6.0801 20.132 6.62504L9.45449 14.2317C8.62497 14.8226 8.75545 16 9.65049 16H12.4622V15.9782H17.942L13.477 17.5537L11.5086 24.5465C11.2656 25.4096 12.1031 25.9199 12.868 25.3749L23.5455 17.7684C24.3751 17.1774 24.2445 16 23.3495 16H19.0857L21.4915 7.45347Z" fill="#9DFF3A"/>
<path d="M45.6703 8.09998H48.4643L57.1763 19.936L56.4063 20.2V8.09998H59.2663V23.5H56.4503L47.7823 11.686L48.5523 11.422V23.5H45.6703V8.09998ZM70.8832 16.746C70.8539 16.13 70.7145 15.6093 70.4652 15.184C70.2159 14.744 69.8639 14.4067 69.4092 14.172C68.9692 13.9227 68.4632 13.798 67.8912 13.798C67.2312 13.798 66.6592 13.952 66.1752 14.26C65.6912 14.568 65.3099 15.0007 65.0312 15.558C64.7672 16.1153 64.6352 16.7607 64.6352 17.494C64.6352 18.3007 64.7819 18.9973 65.0752 19.584C65.3832 20.1707 65.8012 20.6253 66.3292 20.948C66.8572 21.256 67.4659 21.41 68.1552 21.41C69.4019 21.41 70.4652 20.9627 71.3452 20.068L72.8632 21.586C72.2765 22.2313 71.5652 22.73 70.7292 23.082C69.8932 23.434 68.9619 23.61 67.9352 23.61C66.7032 23.61 65.6325 23.3607 64.7232 22.862C63.8285 22.3487 63.1245 21.652 62.6112 20.772C62.1125 19.8773 61.8632 18.836 61.8632 17.648C61.8632 16.46 62.1125 15.4187 62.6112 14.524C63.1245 13.6293 63.8285 12.9327 64.7232 12.434C65.6325 11.9353 66.6739 11.6787 67.8472 11.664C69.2405 11.664 70.3625 11.95 71.2132 12.522C72.0785 13.094 72.6945 13.9007 73.0612 14.942C73.4279 15.9687 73.5599 17.1933 73.4572 18.616H64.2172V16.746H70.8832ZM81.1087 11.664C82.3261 11.664 83.3967 11.9133 84.3207 12.412C85.2594 12.9107 85.9854 13.6073 86.4987 14.502C87.0267 15.3967 87.2907 16.438 87.2907 17.626C87.2907 18.814 87.0267 19.8553 86.4987 20.75C85.9854 21.6447 85.2594 22.3487 84.3207 22.862C83.3967 23.3607 82.3261 23.61 81.1087 23.61C79.8767 23.61 78.7914 23.3607 77.8527 22.862C76.9141 22.3487 76.1807 21.6447 75.6527 20.75C75.1394 19.8553 74.8827 18.814 74.8827 17.626C74.8827 16.438 75.1394 15.3967 75.6527 14.502C76.1807 13.6073 76.9141 12.9107 77.8527 12.412C78.7914 11.9133 79.8767 11.664 81.1087 11.664ZM81.1087 13.974C80.4487 13.974 79.8621 14.1353 79.3487 14.458C78.8501 14.766 78.4614 15.1987 78.1827 15.756C77.9041 16.2987 77.7647 16.9293 77.7647 17.648C77.7647 18.3813 77.9041 19.0267 78.1827 19.584C78.4614 20.1413 78.8501 20.574 79.3487 20.882C79.8621 21.19 80.4487 21.344 81.1087 21.344C81.7541 21.344 82.3261 21.19 82.8247 20.882C83.3234 20.574 83.7121 20.1413 83.9907 19.584C84.2694 19.0267 84.4087 18.3813 84.4087 17.648C84.4087 16.9293 84.2694 16.2987 83.9907 15.756C83.7121 15.1987 83.3234 14.766 82.8247 14.458C82.3261 14.1353 81.7541 13.974 81.1087 13.974ZM89.8852 8.09998H100.511V10.564H92.8332V14.854H99.8072V17.296H92.8332V23.5H89.8852V8.09998ZM102.601 11.774H105.461V23.5H102.601V11.774ZM104.009 6.77998C104.479 6.77998 104.867 6.93398 105.175 7.24198C105.483 7.54998 105.637 7.93865 105.637 8.40798C105.637 8.86265 105.483 9.25132 105.175 9.57398C104.867 9.88198 104.479 10.036 104.009 10.036C103.555 10.036 103.173 9.88198 102.865 9.57398C102.557 9.25132 102.403 8.86265 102.403 8.40798C102.403 7.93865 102.557 7.54998 102.865 7.24198C103.173 6.93398 103.555 6.77998 104.009 6.77998Z" fill="white"/>
</svg>
